<svg xmlns="http://www.w3.org/2000/svg" viewBox="0 0 177 177"><defs><style>.cls-1{fill:#f4a286;}.cls-2{fill:#fff;}</style></defs><title>bl_rehabilitacion</title><g id="Capa_3" data-name="Capa 3"><rect class="cls-1" x="176.59" y="176.59" width="0.41" height="0.41"/><rect class="cls-1" width="0.41" height="0.41"/></g><g id="Capa_5" data-name="Capa 5"><rect class="cls-2" x="136" y="97.97" width="14.04" height="14.04"/><path class="cls-2" d="M38.39,40.86V54.44h80.68v.86H38.39V112h3.39V91.4a8,8,0,1,1,15.93,0V112H61.1V91.4A8,8,0,0,1,77,91.4V112h3.39V91.4a8,8,0,0,1,15.93,0V112h3.39V91.4a8,8,0,0,1,15.93,0V112h3.39V40.86Zm18,34.65H43.67v-8.2a6.34,6.34,0,1,1,12.69,0Zm19.06,0H62.72v-8.2a6.34,6.34,0,0,1,12.69,0Zm19.06,0H81.78v-8.2a6.34,6.34,0,0,1,12.69,0Zm19.06,0H100.84v-8.2a6.34,6.34,0,0,1,12.69,0Z"/><polygon class="cls-2" points="38.39 54.45 38.39 54.45 38.39 55.3 38.39 55.3 38.39 54.87 38.39 54.45"/><path class="cls-2" d="M44.84,136.28h-1.7L40.38,133v3.28H39.11v-9.58h2.47a3,3,0,0,1,2.17.91,3.27,3.27,0,0,1,.65,1,3.28,3.28,0,0,1,0,2.35,3,3,0,0,1-.58,1,3.15,3.15,0,0,1-.88.69,2.86,2.86,0,0,1-1.05.33ZM40.38,128v3.67h1.2a1.73,1.73,0,0,0,.69-.14,1.88,1.88,0,0,0,.58-.39,2,2,0,0,0,.38-.59,1.89,1.89,0,0,0-.38-2,1.88,1.88,0,0,0-.58-.39,1.73,1.73,0,0,0-.69-.14Z"/><path class="cls-2" d="M46.14,136.28v-9.6h5.25V128h-4v2.92h2.68v1.18H47.39V135h4v1.3Z"/><path class="cls-2" d="M58,136.28v-4.14h-3.9v4.14H52.83v-9.6h1.27v4.16H58v-4.16h1.26v9.6Z"/><path class="cls-2" d="M67,136.28l-1.18-3.38h-3l-1.18,3.38H60.27l3.33-9.58H65l3.33,9.58Zm-2.68-7.72-1.1,3.13h2.18Z"/><path class="cls-2" d="M73.91,127a2.47,2.47,0,0,1,.93,1,2.85,2.85,0,0,1,.32,1.37,2.7,2.7,0,0,1-.21,1.06,3,3,0,0,1-.57.89,2.79,2.79,0,0,1,.82,1,2.74,2.74,0,0,1,.3,1.27,2.66,2.66,0,0,1-.36,1.36,2.77,2.77,0,0,1-1,1,2.54,2.54,0,0,1-1.34.37H69.68v-9.61h2.81A2.81,2.81,0,0,1,73.91,127ZM71,128v2.86h1.54a1.33,1.33,0,0,0,1-.42,1.42,1.42,0,0,0,.4-1,1.38,1.38,0,0,0-.4-1,1.35,1.35,0,0,0-1-.4Zm0,4.16V135h1.88a1.34,1.34,0,0,0,1-.41,1.38,1.38,0,0,0,.4-1,1.42,1.42,0,0,0-.4-1,1.33,1.33,0,0,0-1-.42Z"/><path class="cls-2" d="M76.79,136.28v-9.6H78v9.6Z"/><path class="cls-2" d="M79.45,136.28v-9.6h1.24V135h2.89v1.3Z"/><path class="cls-2" d="M84.88,136.28v-9.6h1.21v9.6Z"/><path class="cls-2" d="M91,127.91v8.37H89.71v-8.37H87.39v-1.23h5.92v1.23Z"/><path class="cls-2" d="M99.76,136.28l-1.18-3.38h-3l-1.18,3.38H93l3.33-9.58h1.44l3.33,9.58Zm-2.68-7.72L96,131.69h2.18Z"/><path class="cls-2" d="M104.67,136a4.73,4.73,0,0,1-1.54-1.05,4.85,4.85,0,0,1-1-1.54,4.73,4.73,0,0,1-.37-1.88,4.84,4.84,0,0,1,3-4.47,4.79,4.79,0,0,1,3.91.09,5.17,5.17,0,0,1,1.73,1.37l-1,.84a3.61,3.61,0,0,0-2.8-1.36,3.4,3.4,0,0,0-1.35.27,3.59,3.59,0,0,0-1.9,1.9,3.53,3.53,0,0,0,0,2.73,3.59,3.59,0,0,0,1.9,1.9,3.39,3.39,0,0,0,1.35.27,3.61,3.61,0,0,0,2.8-1.36l1,.84a5.34,5.34,0,0,1-1.74,1.37,4.64,4.64,0,0,1-2,.46A4.7,4.7,0,0,1,104.67,136Z"/><path class="cls-2" d="M111.61,136.28v-9.6h1.21v9.6Z"/><path class="cls-2" d="M117.07,136a4.64,4.64,0,0,1-1.54-1,4.83,4.83,0,0,1-1-1.55,4.85,4.85,0,0,1,0-3.72,4.81,4.81,0,0,1,1-1.55,4.87,4.87,0,0,1,1.54-1,4.65,4.65,0,0,1,1.85-.37,4.71,4.71,0,0,1,1.86.38,4.86,4.86,0,0,1,2.58,2.58,4.7,4.7,0,0,1,.38,1.86,4.75,4.75,0,0,1-.37,1.87,4.84,4.84,0,0,1-2.58,2.59,4.83,4.83,0,0,1-3.72,0Zm.5-7.71a3.5,3.5,0,0,0-2.16,3.24,3.54,3.54,0,0,0,.27,1.38,3.5,3.5,0,0,0,6.47,0,3.54,3.54,0,0,0,.27-1.38,3.51,3.51,0,0,0-4.86-3.24Zm1.74-2.3h-1l.53-2H120Z"/><path class="cls-2" d="M130.66,136.28l-4.33-7v7H125v-9.6h1.26l4.47,7.25v-7.25H132v9.6Z"/></g></svg>