<svg id="Capa_1" data-name="Capa 1" xmlns="http://www.w3.org/2000/svg" viewBox="0 0 469.49 151.34"><defs><style>.cls-1{fill:#043845;}</style></defs><title>ejem</title><path class="cls-1" d="M237.52,456.31V450a24.48,24.48,0,0,1-7.62,5.28,21.74,21.74,0,0,1-9.13,2.11A29.21,29.21,0,0,1,209.21,455a30.47,30.47,0,0,1-9.74-6.57,31.76,31.76,0,0,1-6.42-9.74,29.59,29.59,0,0,1-2.34-11.7V381.28H204V427a16.26,16.26,0,0,0,5,11.93,16.09,16.09,0,0,0,18.11,3.62,17.12,17.12,0,0,0,5.44-3.62,16.27,16.27,0,0,0,5-11.93V381.28h13.13v75Z" transform="translate(-74.17 -356.05)"/><path class="cls-1" d="M281.11,424.5a13.69,13.69,0,0,0,2.66,7.61,28.76,28.76,0,0,0,6.16,6.69,23.43,23.43,0,0,0,14.91,5q13.54,0,22.06-13.08l11.56,6.85a43.29,43.29,0,0,1-14.61,14.76,36.44,36.44,0,0,1-19,5.17,37.41,37.41,0,0,1-14.76-3,38.69,38.69,0,0,1-20.62-20.62,37.43,37.43,0,0,1-3-14.76,38.57,38.57,0,0,1,11.26-27.24A35.7,35.7,0,0,1,290,383.73a39.5,39.5,0,0,1,29.67,0,35.73,35.73,0,0,1,12.25,8.22q11.26,11.57,11.26,26.78a39,39,0,0,1-.46,5.78Zm12-28.45a23.69,23.69,0,0,0-8.75,7.23,15.86,15.86,0,0,0-3.27,9.51h47.47a15.87,15.87,0,0,0-3.27-9.51,23.71,23.71,0,0,0-8.75-7.23,26.42,26.42,0,0,0-23.43,0Z" transform="translate(-74.17 -356.05)"/><path class="cls-1" d="M393.13,395a16.08,16.08,0,0,0-6.57-1.68,13.18,13.18,0,0,0-10.09,4.28,15,15,0,0,0-4.28,10.55v48.62H359V408.14A28.43,28.43,0,0,1,363.24,393a28.88,28.88,0,0,1,11.54-10.7,27.24,27.24,0,0,1,11.77-2.6,25.7,25.7,0,0,1,9.63,1.84,37.61,37.61,0,0,1,9.63,6Z" transform="translate(-74.17 -356.05)"/><path class="cls-1" d="M432.52,454.5A39.36,39.36,0,0,1,412,434a36.29,36.29,0,0,1-3-14.64,37.75,37.75,0,0,1,3-14.95A38.81,38.81,0,0,1,420.3,392a38.24,38.24,0,0,1,12.23-8.23,37.13,37.13,0,0,1,14.64-2.94,38.62,38.62,0,0,1,14.95,2.94,37.63,37.63,0,0,1,20.61,20.61,38.65,38.65,0,0,1,2.94,14.95A37.16,37.16,0,0,1,482.72,434a38.23,38.23,0,0,1-8.23,12.23,38.77,38.77,0,0,1-12.38,8.3,37.78,37.78,0,0,1-14.95,3A36.33,36.33,0,0,1,432.52,454.5Zm-2.72-53a25.13,25.13,0,0,0-5.44,8.15,24.74,24.74,0,0,0-2,9.66,23.64,23.64,0,0,0,2,9.51,25.55,25.55,0,0,0,5.44,8,25.81,25.81,0,0,0,7.92,5.44,23.13,23.13,0,0,0,9.44,2,24.75,24.75,0,0,0,9.66-2,23.46,23.46,0,0,0,8-5.44,27.08,27.08,0,0,0,5.29-8,23.73,23.73,0,0,0,2-9.51,24.82,24.82,0,0,0-2-9.66,26.59,26.59,0,0,0-5.29-8.15,22.82,22.82,0,0,0-7.92-5.36,25.45,25.45,0,0,0-9.74-1.89A23.68,23.68,0,0,0,429.81,401.51Z" transform="translate(-74.17 -356.05)"/><path class="cls-1" d="M501.52,456.73V356h13.15V456.73Z" transform="translate(-74.17 -356.05)"/><path class="cls-1" d="M93.84,497.85H85l-3.26,9.27H79L87.79,482H91l8.82,25.13H97.09ZM93,495.43l-3.6-10.29-3.6,10.29Z" transform="translate(-74.17 -356.05)"/><path class="cls-1" d="M115.14,498.08l8.14,9H119.8l-8.14-9h-.23v9h-2.61V482h6.43a7.82,7.82,0,0,1,4,1.08A8.05,8.05,0,0,1,122.2,486a7.93,7.93,0,0,1,1.08,4,7.81,7.81,0,0,1-1.08,4,8.09,8.09,0,0,1-2.91,2.91,7.82,7.82,0,0,1-4,1.08Zm-3.71-13.51v10.94h3.82a5.26,5.26,0,0,0,2.72-.74,5.56,5.56,0,0,0,2-2,5.27,5.27,0,0,0,.74-2.72,5.37,5.37,0,0,0-.74-2.74,5.51,5.51,0,0,0-2-2,5.25,5.25,0,0,0-2.72-.74Z" transform="translate(-74.17 -356.05)"/><path class="cls-1" d="M156.15,500.14a12.91,12.91,0,0,1-3.65,4.41h5v2.57H144.85a12.18,12.18,0,0,1-6.32-1.7,12.85,12.85,0,0,1-4.58-4.58,12.6,12.6,0,0,1,0-12.66,12.74,12.74,0,0,1,4.6-4.6,12.55,12.55,0,0,1,12.62,0,12.66,12.66,0,0,1,4.62,4.62,12.5,12.5,0,0,1,.36,11.94Zm-20-.59a9.93,9.93,0,0,0,3.65,3.65,10.1,10.1,0,0,0,10.07,0,9.93,9.93,0,0,0,3.65-3.65,10.1,10.1,0,0,0,0-10.07,10,10,0,0,0-8.69-5,9.83,9.83,0,0,0-5,1.34,10,10,0,0,0-3.65,3.65,10.1,10.1,0,0,0,0,10.07Z" transform="translate(-74.17 -356.05)"/><path class="cls-1" d="M170.85,506.2a9,9,0,0,1-3.2-3.2,8.44,8.44,0,0,1-1.19-4.39V482H169v16.65a6.1,6.1,0,0,0,3.1,5.36,6.27,6.27,0,0,0,3.14.81,6.37,6.37,0,0,0,3.16-.81,6,6,0,0,0,2.29-2.23,6.07,6.07,0,0,0,.83-3.12V482H184v16.65a8.44,8.44,0,0,1-1.19,4.39,9.05,9.05,0,0,1-3.2,3.2,8.68,8.68,0,0,1-8.78,0Z" transform="translate(-74.17 -356.05)"/><path class="cls-1" d="M195.56,482v25.17H193V482Z" transform="translate(-74.17 -356.05)"/><path class="cls-1" d="M220,484.49h-6.47v22.63H211V484.49h-6.47V482H220Z" transform="translate(-74.17 -356.05)"/><path class="cls-1" d="M231.59,484.53v8.82h7.53v2.42h-7.53v8.78h11.2v2.57H229V482h13.78v2.57Z" transform="translate(-74.17 -356.05)"/><path class="cls-1" d="M258.08,505.65a12.64,12.64,0,0,1-4.62-4.62,12.88,12.88,0,0,1,0-12.81,12.71,12.71,0,0,1,4.64-4.65,12.37,12.37,0,0,1,6.38-1.72,12.74,12.74,0,0,1,5.34,1.16,11.93,11.93,0,0,1,4.31,3.31l-2,1.67a10.22,10.22,0,0,0-7.69-3.52,9.72,9.72,0,0,0-5.05,1.38,10.26,10.26,0,0,0-3.69,3.73,9.93,9.93,0,0,0-1.36,5.07,9.83,9.83,0,0,0,1.36,5.05,10.15,10.15,0,0,0,3.69,3.69,9.82,9.82,0,0,0,5.05,1.36,10.22,10.22,0,0,0,7.69-3.52l2,1.67a12.31,12.31,0,0,1-4.31,3.29,12.8,12.8,0,0,1-11.73-.53Z" transform="translate(-74.17 -356.05)"/><path class="cls-1" d="M298.61,484.49h-6.47v22.63h-2.57V484.49h-6.47V482h15.52Z" transform="translate(-74.17 -356.05)"/><path class="cls-1" d="M313.86,505.61a12.84,12.84,0,0,1-4.58-4.58,12.6,12.6,0,0,1,0-12.66,12.77,12.77,0,0,1,4.59-4.6,12.55,12.55,0,0,1,12.62,0,12.67,12.67,0,0,1,4.61,4.62,12.53,12.53,0,0,1,0,12.62,12.75,12.75,0,0,1-4.59,4.6,12.62,12.62,0,0,1-12.66,0Zm11.35-2.21a9.94,9.94,0,0,0,3.65-3.65,10.12,10.12,0,0,0,0-10.07,10,10,0,0,0-3.65-3.65,10,10,0,1,0,0,17.37Z" transform="translate(-74.17 -356.05)"/><path class="cls-1" d="M356.31,489.26a5.64,5.64,0,0,0-.91-2.5q-1.47-2.27-4.88-2.27a5.66,5.66,0,0,0-4.13,1.29,4.53,4.53,0,0,0-1.17,3.29,3.56,3.56,0,0,0,1.29,3.18,7.48,7.48,0,0,0,3.6,1.06,22.46,22.46,0,0,1,3.71.59,8.44,8.44,0,0,1,2.54,1.08A5.71,5.71,0,0,1,359,500.2a6.54,6.54,0,0,1-.55,2.65,7,7,0,0,1-1.57,2.23,8.61,8.61,0,0,1-6.32,2.27,8.89,8.89,0,0,1-6.39-2.23,7.94,7.94,0,0,1-2.42-5h2.61a5.56,5.56,0,0,0,1.59,3.1,7.72,7.72,0,0,0,8.83.25,4,4,0,0,0,1.61-3.27,4.07,4.07,0,0,0-.51-2.14,3.6,3.6,0,0,0-1.95-1.38,16.46,16.46,0,0,0-4.09-.76q-7.27-.64-7.27-6.85a7.83,7.83,0,0,1,.51-2.86,6.55,6.55,0,0,1,1.46-2.25,8,8,0,0,1,5.91-2.08h0a8.11,8.11,0,0,1,6,2.14,8.8,8.8,0,0,1,2.44,5.28h-2.61Z" transform="translate(-74.17 -356.05)"/><rect class="cls-1" x="456.35" y="87.54" width="13.15" height="13.15"/><path class="cls-1" d="M174.85,406.39h0A50.34,50.34,0,0,0,124.51,356h0a50.34,50.34,0,0,0-50.34,50.34h0a50.34,50.34,0,0,0,50.34,50.34h50.34V443.58h-16.5A50.15,50.15,0,0,0,174.85,406.39Zm-50.34,37.19a37.19,37.19,0,1,1,0-74.39h0a37.19,37.19,0,0,1,0,74.39Z" transform="translate(-74.17 -356.05)"/></svg>