<svg xmlns="http://www.w3.org/2000/svg" viewBox="0 0 177 177"><defs><style>.cls-1{fill:#f4a286;}.cls-2{fill:#043845;}</style></defs><title>certificados</title><g id="Capa_3" data-name="Capa 3"><rect class="cls-1" x="176.59" y="176.59" width="0.41" height="0.41"/><rect class="cls-1" width="0.41" height="0.41"/></g><g id="Capa_10" data-name="Capa 10"><rect class="cls-2" x="114.76" y="90.67" width="14.04" height="14.04"/><path class="cls-2" d="M49.75,128.66a4.73,4.73,0,0,1-1.54-1.05,4.85,4.85,0,0,1-1-1.54,4.73,4.73,0,0,1-.37-1.88,4.84,4.84,0,0,1,3-4.47,4.79,4.79,0,0,1,3.91.09,5.17,5.17,0,0,1,1.73,1.37l-1,.84a3.61,3.61,0,0,0-2.8-1.36,3.4,3.4,0,0,0-1.35.27,3.59,3.59,0,0,0-1.9,1.9,3.53,3.53,0,0,0,0,2.73,3.59,3.59,0,0,0,1.9,1.9,3.39,3.39,0,0,0,1.35.27,3.61,3.61,0,0,0,2.8-1.36l1,.84a5.34,5.34,0,0,1-1.74,1.37,4.64,4.64,0,0,1-2,.46A4.7,4.7,0,0,1,49.75,128.66Z"/><path class="cls-2" d="M56.7,129v-9.6H62v1.3H58v2.92h2.68v1.18H58v2.9h4V129Z"/><path class="cls-2" d="M69.12,129h-1.7l-2.76-3.28V129H63.39v-9.58h2.47a3,3,0,0,1,2.17.91,3.27,3.27,0,0,1,.65,1,3.28,3.28,0,0,1,0,2.35,3,3,0,0,1-.58,1,3.15,3.15,0,0,1-.88.69,2.86,2.86,0,0,1-1.05.33Zm-4.46-8.29v3.67h1.2a1.73,1.73,0,0,0,.69-.14,1.88,1.88,0,0,0,.58-.39,2,2,0,0,0,.38-.59,1.89,1.89,0,0,0-.38-2,1.88,1.88,0,0,0-.58-.39,1.73,1.73,0,0,0-.69-.14Z"/><path class="cls-2" d="M73.87,120.6V129H72.6V120.6H70.28v-1.23H76.2v1.23Z"/><path class="cls-2" d="M77.5,129v-9.6h1.21V129Z"/><path class="cls-2" d="M81.39,120.68v2.86h2.7v1.3h-2.7V129H80.15v-9.6H85.4v1.3Z"/><path class="cls-2" d="M86.7,129v-9.6h1.21V129Z"/><path class="cls-2" d="M92.17,128.66a4.73,4.73,0,0,1-1.54-1.05,4.85,4.85,0,0,1-1-1.54,4.73,4.73,0,0,1-.37-1.88,4.84,4.84,0,0,1,3-4.47,4.79,4.79,0,0,1,3.91.09,5.17,5.17,0,0,1,1.73,1.37l-1,.84a3.61,3.61,0,0,0-2.8-1.36,3.4,3.4,0,0,0-1.35.27,3.59,3.59,0,0,0-1.9,1.9,3.53,3.53,0,0,0,0,2.73,3.59,3.59,0,0,0,1.9,1.9,3.39,3.39,0,0,0,1.35.27,3.61,3.61,0,0,0,2.8-1.36l1,.84a5.34,5.34,0,0,1-1.74,1.37,4.64,4.64,0,0,1-2,.46A4.7,4.7,0,0,1,92.17,128.66Z"/><path class="cls-2" d="M105.42,129l-1.18-3.38h-3L100.05,129H98.68l3.33-9.58h1.44l3.33,9.58Zm-2.68-7.72-1.1,3.13h2.18Z"/><path class="cls-2" d="M108.09,129v-9.61h2.48a4.64,4.64,0,0,1,1.83.37,4.81,4.81,0,0,1,1.53,1,5.08,5.08,0,0,1,1,1.55,4.85,4.85,0,0,1,0,3.71,4.9,4.9,0,0,1-1,1.54,4.67,4.67,0,0,1-3.36,1.41Zm1.3-8.31v7h1.18a3.37,3.37,0,0,0,1.33-.27,3.5,3.5,0,0,0,1.12-.75,3.59,3.59,0,0,0,.74-1.13,3.55,3.55,0,0,0,0-2.7,3.61,3.61,0,0,0-.74-1.13,3.51,3.51,0,0,0-1.12-.75,3.35,3.35,0,0,0-1.33-.27Z"/><path class="cls-2" d="M119.43,128.68a4.64,4.64,0,0,1-1.54-1,4.83,4.83,0,0,1-1-1.55,4.85,4.85,0,0,1,0-3.72,4.81,4.81,0,0,1,1-1.55,4.87,4.87,0,0,1,1.54-1,4.65,4.65,0,0,1,1.85-.37,4.71,4.71,0,0,1,1.86.38,4.86,4.86,0,0,1,2.58,2.58,4.7,4.7,0,0,1,.38,1.86,4.75,4.75,0,0,1-.37,1.87,4.84,4.84,0,0,1-2.58,2.59,4.83,4.83,0,0,1-3.72,0Zm.5-7.71a3.5,3.5,0,0,0-2.16,3.24,3.54,3.54,0,0,0,.27,1.38,3.5,3.5,0,0,0,6.47,0,3.54,3.54,0,0,0,.27-1.38,3.51,3.51,0,0,0-4.86-3.24Z"/><path class="cls-2" d="M131.94,121.41a1.59,1.59,0,0,0-.64-.57,2.29,2.29,0,0,0-1-.18,1.83,1.83,0,0,0-1.37.42,1.47,1.47,0,0,0-.37,1.08,1.58,1.58,0,0,0,.12.66,1,1,0,0,0,.35.41,2.41,2.41,0,0,0,1.14.32,7.89,7.89,0,0,1,1.36.22,3.67,3.67,0,0,1,1,.41,2.28,2.28,0,0,1,1.05,2.08,2.55,2.55,0,0,1-.22,1,2.81,2.81,0,0,1-1.7,1.54,4,4,0,0,1-1.31.22,3.39,3.39,0,0,1-2.44-.87,3.43,3.43,0,0,1-.94-2.08h1.3a1.89,1.89,0,0,0,.52,1.14,2.15,2.15,0,0,0,1.52.52,2.28,2.28,0,0,0,1.44-.42,1.31,1.31,0,0,0,.53-1.08,1.58,1.58,0,0,0-.08-.53.89.89,0,0,0-.3-.4,3.66,3.66,0,0,0-1.83-.48,3.31,3.31,0,0,1-2.08-.79,2.52,2.52,0,0,1-.71-1.91,2.71,2.71,0,0,1,.77-2,3.5,3.5,0,0,1,4.59.1,3.62,3.62,0,0,1,.89,2.08h-1.3A2.25,2.25,0,0,0,131.94,121.41Z"/><path class="cls-2" d="M145.36,125.44V129h-1.28v-3.51l-2.93-6.09h1.43l2.14,4.45,2.14-4.45h1.43Z"/><path class="cls-2" d="M50.39,137.92v8.37H49.12v-8.37H46.79V136.7h5.92v1.23Z"/><path class="cls-2" d="M59.74,146.3H58L55.28,143v3.28H54v-9.58h2.47a3,3,0,0,1,2.17.91,3.27,3.27,0,0,1,.65,1,3.28,3.28,0,0,1,0,2.35,3,3,0,0,1-.58,1,3.15,3.15,0,0,1-.88.69,2.86,2.86,0,0,1-1.05.33ZM55.28,138v3.67h1.2a1.73,1.73,0,0,0,.69-.14,1.88,1.88,0,0,0,.58-.39,2,2,0,0,0,.38-.59,1.89,1.89,0,0,0-.38-2,1.88,1.88,0,0,0-.58-.39,1.73,1.73,0,0,0-.69-.14Z"/><path class="cls-2" d="M67.64,146.3l-1.18-3.38h-3l-1.18,3.38H60.9l3.33-9.58h1.44L69,146.3ZM65,138.57l-1.1,3.13H66Zm.38-2.58h-1l.53-2H66Z"/><path class="cls-2" d="M78.29,146.3v-7.52l-2.86,4.13h-1l-2.84-4.13v7.52h-1.3v-9.6h1.43l3.2,4.63,3.21-4.63h1.44v9.6Z"/><path class="cls-2" d="M81,146.3v-9.6h1.21v9.6Z"/><path class="cls-2" d="M87.14,137.92v8.37H85.87v-8.37H83.54V136.7h5.92v1.23Z"/><path class="cls-2" d="M90.76,146.3v-9.6H96V138H92v2.92H94.7v1.18H92V145h4v1.3Z"/><path class="cls-2" d="M102.28,138.73a1.59,1.59,0,0,0-.64-.57,2.29,2.29,0,0,0-1-.18,1.83,1.83,0,0,0-1.37.42,1.47,1.47,0,0,0-.37,1.08,1.58,1.58,0,0,0,.12.66,1,1,0,0,0,.35.41,2.41,2.41,0,0,0,1.14.32,7.89,7.89,0,0,1,1.36.22,3.67,3.67,0,0,1,1,.41,2.28,2.28,0,0,1,1.05,2.08,2.55,2.55,0,0,1-.22,1,2.81,2.81,0,0,1-1.7,1.54,4,4,0,0,1-1.31.22,3.39,3.39,0,0,1-2.44-.87,3.43,3.43,0,0,1-.94-2.08h1.3a1.89,1.89,0,0,0,.52,1.14,2.15,2.15,0,0,0,1.52.52,2.28,2.28,0,0,0,1.44-.42,1.31,1.31,0,0,0,.53-1.08,1.58,1.58,0,0,0-.08-.53.89.89,0,0,0-.3-.4,3.66,3.66,0,0,0-1.83-.48,3.31,3.31,0,0,1-2.08-.79,2.52,2.52,0,0,1-.71-1.91,2.71,2.71,0,0,1,.77-2,3.5,3.5,0,0,1,4.59.1,3.62,3.62,0,0,1,.89,2.08h-1.3A2.25,2.25,0,0,0,102.28,138.73Z"/><path class="cls-2" d="M46.22,30v74.66H97.83V30Zm26.37,28.5L69.34,60.4H52.09V56.66H69.34ZM52.09,38.74h8.29l3.25,1.87-3.25,1.87H52.09Zm-.12,9H65l3.25,1.87L65,51.45H52Zm0,17.91h21.5l3.25,1.87-3.25,1.87H52Zm0,9H78.43l3.25,1.87-3.25,1.87H52Zm0,8.83H83.26l3.25,1.87-3.25,1.87H52ZM88,96H52V92.23H88l3.25,1.87Z"/></g></svg>