<svg xmlns="http://www.w3.org/2000/svg" viewBox="0 0 177 177"><defs><style>.cls-1{fill:#f4a286;}.cls-2{fill:#043845;}</style></defs><title>diseno-web</title><g id="Capa_3" data-name="Capa 3"><rect class="cls-1" x="176.59" y="176.59" width="0.41" height="0.41"/><rect class="cls-1" width="0.41" height="0.41"/></g><g id="Capa_8" data-name="Capa 8"><rect class="cls-2" x="137.84" y="95.91" width="14.04" height="14.04"/><path class="cls-2" d="M47.63,103.36a1.46,1.46,0,0,0,1.46,1.46h63a1.46,1.46,0,0,0,1.46-1.46V68.66H47.63Zm26-4.2H51.38v-.91H73.65Zm0-2.49H51.38v-.91H73.65Zm0-2.49H51.38v-.91H73.65Zm0-2.49H51.38v-.91H73.65Zm0-2.49H51.38v-.91H73.65Zm0-5.06H51.38v-.91H73.65Zm36.09,15H82.49v-.91h27.26Zm0-2.49H82.49v-.91h27.26Zm0-2.49H82.49v-.91h27.26ZM82,70.85H110.2V89.19H82ZM73.65,81H51.38v-.91H73.65ZM58.71,76.67h.83v.81h-.83ZM54.55,71.3a3.13,3.13,0,0,1,3.17,3.09,3,3,0,0,1-1,2.29h1v.81H54.55a3.09,3.09,0,1,1,0-6.19Z"/><ellipse class="cls-2" cx="54.55" cy="74.39" rx="2.34" ry="2.29"/><path class="cls-2" d="M113.57,63.09a1.46,1.46,0,0,0-1.46-1.46h-63a1.46,1.46,0,0,0-1.46,1.46v4.67h65.94ZM52.41,66.48a1.26,1.26,0,1,1,1.26-1.26A1.26,1.26,0,0,1,52.41,66.48Zm4.42,0a1.26,1.26,0,1,1,1.26-1.26A1.26,1.26,0,0,1,56.82,66.48Zm4.42,0a1.26,1.26,0,1,1,1.26-1.26A1.26,1.26,0,0,1,61.24,66.48Z"/><rect class="cls-2" x="82.94" y="71.75" width="26.35" height="16.53"/><path class="cls-2" d="M115.56,56.5H45.64A5.52,5.52,0,0,0,40.13,62v42.43A5.52,5.52,0,0,0,45.64,110h69.92a5.52,5.52,0,0,0,5.51-5.51V62A5.52,5.52,0,0,0,115.56,56.5Zm-.18,46.86a3.27,3.27,0,0,1-3.27,3.27h-63a3.27,3.27,0,0,1-3.27-3.27V63.09a3.27,3.27,0,0,1,3.27-3.27h63a3.27,3.27,0,0,1,3.27,3.27Z"/><path class="cls-2" d="M40.85,136.28v-9.61h2.48a4.64,4.64,0,0,1,1.83.37,4.81,4.81,0,0,1,1.53,1,5.08,5.08,0,0,1,1,1.55,4.85,4.85,0,0,1,0,3.71,4.9,4.9,0,0,1-1,1.54,4.67,4.67,0,0,1-3.36,1.41Zm1.3-8.31v7h1.18a3.37,3.37,0,0,0,1.33-.27,3.5,3.5,0,0,0,1.12-.75,3.59,3.59,0,0,0,.74-1.13,3.55,3.55,0,0,0,0-2.7,3.61,3.61,0,0,0-.74-1.13,3.51,3.51,0,0,0-1.12-.75,3.35,3.35,0,0,0-1.33-.27Z"/><path class="cls-2" d="M49.38,136.28v-9.6h1.21v9.6Z"/><path class="cls-2" d="M56.86,128.71a1.59,1.59,0,0,0-.64-.57,2.29,2.29,0,0,0-1-.18,1.83,1.83,0,0,0-1.37.42,1.47,1.47,0,0,0-.37,1.08,1.58,1.58,0,0,0,.12.66,1,1,0,0,0,.35.41,2.41,2.41,0,0,0,1.14.32,7.89,7.89,0,0,1,1.36.22,3.67,3.67,0,0,1,1,.41,2.28,2.28,0,0,1,1.05,2.08,2.55,2.55,0,0,1-.22,1,2.81,2.81,0,0,1-1.7,1.54,4,4,0,0,1-1.31.22,3.39,3.39,0,0,1-2.44-.87,3.43,3.43,0,0,1-.94-2.08h1.3a1.89,1.89,0,0,0,.52,1.14,2.15,2.15,0,0,0,1.52.52,2.28,2.28,0,0,0,1.44-.42,1.31,1.31,0,0,0,.53-1.08,1.58,1.58,0,0,0-.08-.53.89.89,0,0,0-.3-.4,3.66,3.66,0,0,0-1.83-.48,3.31,3.31,0,0,1-2.08-.79,2.52,2.52,0,0,1-.71-1.91,2.71,2.71,0,0,1,.77-2,3.5,3.5,0,0,1,4.59.1,3.62,3.62,0,0,1,.89,2.08h-1.3A2.25,2.25,0,0,0,56.86,128.71Z"/><path class="cls-2" d="M59.79,136.28v-9.6H65V128H61v2.92h2.68v1.18H61V135h4v1.3Z"/><path class="cls-2" d="M72.1,136.28l-4.33-7v7H66.48v-9.6h1.26l4.47,7.25v-7.25h1.27v9.6Zm.16-11.33a2.63,2.63,0,0,1-.65.74,1.22,1.22,0,0,1-.72.24,1.4,1.4,0,0,1-.48-.09,4.46,4.46,0,0,1-.54-.25l-.43-.2a1.3,1.3,0,0,0-.35-.08q-.29,0-.56.48l-.06.13-.65-.59a2,2,0,0,1,.39-.51,1.17,1.17,0,0,1,.87-.39,1.66,1.66,0,0,1,.54.09,5.43,5.43,0,0,1,.63.27,3,3,0,0,0,.43.19.65.65,0,0,0,.28,0,.59.59,0,0,0,.36-.16,3.23,3.23,0,0,0,.39-.46Z"/><path class="cls-2" d="M77.73,136a4.64,4.64,0,0,1-1.54-1,4.83,4.83,0,0,1-1-1.55,4.85,4.85,0,0,1,0-3.72,4.81,4.81,0,0,1,1-1.55,4.87,4.87,0,0,1,1.54-1,4.65,4.65,0,0,1,1.85-.37,4.71,4.71,0,0,1,1.86.38A4.86,4.86,0,0,1,84,129.65a4.7,4.7,0,0,1,.38,1.86,4.75,4.75,0,0,1-.37,1.87A4.84,4.84,0,0,1,81.45,136a4.83,4.83,0,0,1-3.72,0Zm.5-7.71a3.5,3.5,0,0,0-2.16,3.24,3.54,3.54,0,0,0,.27,1.38,3.5,3.5,0,0,0,6.47,0,3.54,3.54,0,0,0,.27-1.38,3.51,3.51,0,0,0-4.86-3.24Z"/><path class="cls-2" d="M101,136.28H99.68l-1.49-4.08-1.43,4.08h-1.3L92,126.67h1.4l2.71,7.52,1.38-3.94-1.3-3.58h1.4l1.27,3.52,1.46,4,2.63-7.52h1.4Z"/><path class="cls-2" d="M105.57,136.28v-9.6h5.25V128h-4v2.92h2.68v1.18h-2.68V135h4v1.3Z"/><path class="cls-2" d="M116.5,127a2.47,2.47,0,0,1,.93,1,2.85,2.85,0,0,1,.32,1.37,2.7,2.7,0,0,1-.21,1.06,3,3,0,0,1-.57.89,2.79,2.79,0,0,1,.82,1,2.74,2.74,0,0,1,.3,1.27,2.66,2.66,0,0,1-.36,1.36,2.77,2.77,0,0,1-1,1,2.54,2.54,0,0,1-1.34.37h-3.15v-9.61h2.81A2.81,2.81,0,0,1,116.5,127Zm-3,.92v2.86h1.54a1.33,1.33,0,0,0,1-.42,1.42,1.42,0,0,0,.4-1,1.38,1.38,0,0,0-.4-1,1.35,1.35,0,0,0-1-.4Zm0,4.16V135h1.88a1.34,1.34,0,0,0,1-.41,1.38,1.38,0,0,0,.4-1,1.42,1.42,0,0,0-.4-1,1.33,1.33,0,0,0-1-.42Z"/></g></svg>