<svg xmlns="http://www.w3.org/2000/svg" viewBox="0 0 177 177"><defs><style>.cls-1{fill:#f4a286;}.cls-2{fill:#043845;}</style></defs><title>diseno-grafico-web</title><g id="Capa_3" data-name="Capa 3"><rect class="cls-1" x="176.59" y="176.59" width="0.41" height="0.41"/><rect class="cls-1" width="0.41" height="0.41"/></g><g id="Capa_13" data-name="Capa 13"><rect class="cls-2" x="123.73" y="91.44" width="14.04" height="14.04"/><circle class="cls-2" cx="78.88" cy="58.8" r="10.35"/><path class="cls-2" d="M107.94,60A25.62,25.62,0,1,0,82.31,85.63h0A25.62,25.62,0,0,0,107.94,60ZM92.89,72.8h-14a14,14,0,1,1,9.41-3.66h4.59Zm4.4-3.71h3.65v3.65H97.29Z"/><polygon class="cls-2" points="82.31 85.63 81.26 85.63 81.26 103.36 36.12 103.36 36.12 105.49 83.39 105.49 83.39 85.63 82.33 85.63 82.32 85.63 82.31 85.63"/><polygon class="cls-2" points="82.32 85.63 82.33 85.63 82.31 85.63 82.32 85.63"/><path class="cls-2" d="M36.35,129.73v-9.61h2.48a4.63,4.63,0,0,1,1.83.37,4.8,4.8,0,0,1,1.53,1,5.08,5.08,0,0,1,1,1.55,4.86,4.86,0,0,1,0,3.71,4.89,4.89,0,0,1-1,1.54,4.67,4.67,0,0,1-3.36,1.41Zm1.3-8.31v7h1.18a3.36,3.36,0,0,0,1.33-.27,3.51,3.51,0,0,0,1.12-.75,3.6,3.6,0,0,0,.74-1.13,3.55,3.55,0,0,0,0-2.7,3.6,3.6,0,0,0-.74-1.13,3.52,3.52,0,0,0-1.12-.75,3.37,3.37,0,0,0-1.33-.27Z"/><path class="cls-2" d="M44.88,129.73v-9.6h1.21v9.6Z"/><path class="cls-2" d="M52.36,122.16a1.58,1.58,0,0,0-.64-.57,2.29,2.29,0,0,0-1-.18,1.82,1.82,0,0,0-1.37.42,1.47,1.47,0,0,0-.37,1.08,1.59,1.59,0,0,0,.12.66,1,1,0,0,0,.35.41,2.41,2.41,0,0,0,1.14.32,8,8,0,0,1,1.36.22,3.67,3.67,0,0,1,1,.41A2.28,2.28,0,0,1,54,127a2.54,2.54,0,0,1-.22,1,2.81,2.81,0,0,1-1.7,1.54,4,4,0,0,1-1.31.22,3.39,3.39,0,0,1-2.44-.87,3.43,3.43,0,0,1-.94-2.08h1.3a1.89,1.89,0,0,0,.52,1.14,2.15,2.15,0,0,0,1.52.52,2.28,2.28,0,0,0,1.44-.42A1.31,1.31,0,0,0,52.7,127a1.58,1.58,0,0,0-.08-.53.89.89,0,0,0-.3-.4,3.66,3.66,0,0,0-1.83-.48,3.31,3.31,0,0,1-2.08-.79,2.52,2.52,0,0,1-.71-1.91,2.71,2.71,0,0,1,.77-2,3.5,3.5,0,0,1,4.59.1,3.62,3.62,0,0,1,.89,2.08h-1.3A2.24,2.24,0,0,0,52.36,122.16Z"/><path class="cls-2" d="M55.29,129.73v-9.6h5.25v1.3h-4v2.92h2.68v1.18H56.54v2.9h4v1.3Z"/><path class="cls-2" d="M67.6,129.73l-4.33-7v7H62v-9.6h1.26l4.47,7.25v-7.25H69v9.6Zm.16-11.33a2.62,2.62,0,0,1-.65.74,1.21,1.21,0,0,1-.72.24,1.4,1.4,0,0,1-.48-.09,4.39,4.39,0,0,1-.54-.25l-.43-.19a1.28,1.28,0,0,0-.35-.08q-.29,0-.56.48l-.06.13-.65-.59a2,2,0,0,1,.39-.51,1.17,1.17,0,0,1,.87-.39,1.66,1.66,0,0,1,.54.09,5.43,5.43,0,0,1,.63.27,3.09,3.09,0,0,0,.43.19.65.65,0,0,0,.28,0,.59.59,0,0,0,.36-.16,3.23,3.23,0,0,0,.39-.46Z"/><path class="cls-2" d="M73.24,129.43a4.65,4.65,0,0,1-1.54-1,4.83,4.83,0,0,1-1-1.55,4.85,4.85,0,0,1,0-3.72,4.9,4.9,0,0,1,2.58-2.59,4.65,4.65,0,0,1,1.85-.38,4.71,4.71,0,0,1,1.86.38,4.85,4.85,0,0,1,2.58,2.58,4.7,4.7,0,0,1,.38,1.86,4.75,4.75,0,0,1-.37,1.87A4.83,4.83,0,0,1,77,129.42a4.83,4.83,0,0,1-3.72,0Zm.5-7.71A3.5,3.5,0,0,0,71.58,125a3.54,3.54,0,0,0,.27,1.38,3.5,3.5,0,0,0,6.47,0A3.54,3.54,0,0,0,78.6,125a3.51,3.51,0,0,0-4.86-3.24Z"/><path class="cls-2" d="M43.24,146.54a4.73,4.73,0,0,1-3.65.35A4.52,4.52,0,0,1,38,146a4.81,4.81,0,0,1-1.2-1.47,4.5,4.5,0,0,1-.55-2.21,4.3,4.3,0,0,1,0-.58,4.9,4.9,0,0,1,.41-1.51,4.58,4.58,0,0,1,.84-1.26,5,5,0,0,1,1.19-.92,4.7,4.7,0,0,1,1.44-.52,4.51,4.51,0,0,1,.89-.09,4.6,4.6,0,0,1,2.28.61,5.85,5.85,0,0,1,1.46,1.23l-1,.84A4.33,4.33,0,0,0,42.27,139a3.69,3.69,0,0,0-1.31-.25,3.4,3.4,0,0,0-3.09,2,3.3,3.3,0,0,0-.37,1.54,3.38,3.38,0,0,0,.13.92,3.25,3.25,0,0,0,1.24,1.86,3.41,3.41,0,0,0,1,.53,3.45,3.45,0,0,0,1.13.19,3.38,3.38,0,0,0,1.44-.31,3.75,3.75,0,0,0,1.19-.87v-1H42.28v-1.3H44.9v2.74a4.49,4.49,0,0,1-1,1A5,5,0,0,1,43.24,146.54Z"/><path class="cls-2" d="M52.07,147h-1.7l-2.76-3.28V147H46.34v-9.58h2.47a3,3,0,0,1,2.17.91,3.27,3.27,0,0,1,.65,1,3.28,3.28,0,0,1,0,2.35,3,3,0,0,1-.58,1,3.15,3.15,0,0,1-.88.69,2.87,2.87,0,0,1-1.05.32Zm-4.46-8.28v3.67h1.2a1.72,1.72,0,0,0,.69-.14,1.86,1.86,0,0,0,.58-.39,1.94,1.94,0,0,0,.38-.59,1.89,1.89,0,0,0-.38-2,1.86,1.86,0,0,0-.58-.39,1.72,1.72,0,0,0-.69-.14Z"/><path class="cls-2" d="M60,147l-1.18-3.38h-3L54.59,147H53.22l3.33-9.58H58L61.34,147Zm-2.68-7.72-1.1,3.13h2.18Zm.38-2.58h-1l.53-2h1.13Z"/><path class="cls-2" d="M63.88,138.75v2.86h2.7v1.3h-2.7V147H62.63v-9.6h5.25v1.3Z"/><path class="cls-2" d="M69.19,147v-9.6H70.4V147Z"/><path class="cls-2" d="M74.66,146.73a4.74,4.74,0,0,1-1.54-1.05,4.85,4.85,0,0,1-1-1.54,4.74,4.74,0,0,1-.37-1.88,4.84,4.84,0,0,1,3-4.47,4.79,4.79,0,0,1,3.91.09,5.19,5.19,0,0,1,1.73,1.37l-1,.84a3.61,3.61,0,0,0-2.8-1.36,3.39,3.39,0,0,0-1.35.27,3.59,3.59,0,0,0-1.9,1.9,3.53,3.53,0,0,0,0,2.73,3.6,3.6,0,0,0,1.9,1.9,3.4,3.4,0,0,0,1.35.27,3.61,3.61,0,0,0,2.8-1.36l1,.84a5.34,5.34,0,0,1-1.74,1.37,4.65,4.65,0,0,1-2,.46A4.7,4.7,0,0,1,74.66,146.73Z"/><path class="cls-2" d="M84.12,146.75a4.65,4.65,0,0,1-1.54-1,4.83,4.83,0,0,1-1-1.55,4.85,4.85,0,0,1,0-3.72,4.9,4.9,0,0,1,2.58-2.59,4.65,4.65,0,0,1,1.85-.38,4.71,4.71,0,0,1,1.86.38,4.85,4.85,0,0,1,2.58,2.58,4.7,4.7,0,0,1,.38,1.86,4.75,4.75,0,0,1-.37,1.87,4.83,4.83,0,0,1-2.58,2.59,4.83,4.83,0,0,1-3.72,0Zm.5-7.71a3.5,3.5,0,0,0-2.16,3.24,3.54,3.54,0,0,0,.27,1.38,3.5,3.5,0,0,0,6.47,0,3.54,3.54,0,0,0,.27-1.38A3.51,3.51,0,0,0,84.62,139Z"/><path class="cls-2" d="M102.59,143.51V147H101.3v-3.51l-2.93-6.09H99.8l2.14,4.45,2.14-4.45h1.43Z"/><path class="cls-2" d="M122,147H120.7L119.21,143,117.79,147h-1.3L113,137.43h1.4l2.71,7.52,1.38-3.94-1.3-3.58h1.4l1.27,3.52,1.46,4,2.63-7.52h1.4Z"/><path class="cls-2" d="M126.59,147v-9.6h5.25v1.3h-4v2.92h2.68v1.18h-2.68v2.9h4V147Z"/><path class="cls-2" d="M137.52,137.81a2.47,2.47,0,0,1,.93,1,2.85,2.85,0,0,1,.32,1.37,2.71,2.71,0,0,1-.21,1.06,3,3,0,0,1-.57.89,2.77,2.77,0,0,1,.82,1,2.75,2.75,0,0,1,.3,1.27,2.65,2.65,0,0,1-.36,1.36,2.77,2.77,0,0,1-1,1,2.54,2.54,0,0,1-1.34.37h-3.15v-9.61h2.81A2.82,2.82,0,0,1,137.52,137.81Zm-3,.92v2.86h1.54a1.33,1.33,0,0,0,1-.42,1.42,1.42,0,0,0,.4-1,1.38,1.38,0,0,0-.4-1,1.35,1.35,0,0,0-1-.4Zm0,4.16v2.86h1.88a1.34,1.34,0,0,0,1-.41,1.38,1.38,0,0,0,.4-1,1.42,1.42,0,0,0-.4-1,1.33,1.33,0,0,0-1-.42Z"/></g></svg>