<svg xmlns="http://www.w3.org/2000/svg" viewBox="0 0 177 177"><defs><style>.cls-1{fill:#f4a286;}.cls-2{fill:#043845;}</style></defs><title>diseno-grafico</title><g id="Capa_3" data-name="Capa 3"><rect class="cls-1" x="176.59" y="176.59" width="0.41" height="0.41"/><rect class="cls-1" width="0.41" height="0.41"/></g><g id="Capa_7" data-name="Capa 7"><rect class="cls-2" x="123.74" y="91.2" width="14.04" height="14.04"/><circle class="cls-2" cx="78.9" cy="58.56" r="10.35"/><path class="cls-2" d="M108,59.78A25.62,25.62,0,1,0,82.32,85.4h0A25.62,25.62,0,0,0,108,59.78ZM92.9,72.57h-14a14,14,0,1,1,9.41-3.66H92.9Zm4.4-3.71h3.65V72.5H97.3Z"/><polygon class="cls-2" points="82.32 85.4 81.27 85.4 81.27 103.13 36.13 103.13 36.13 105.26 83.4 105.26 83.4 85.4 82.34 85.4 82.33 85.4 82.32 85.4"/><polygon class="cls-2" points="82.33 85.4 82.34 85.4 82.32 85.4 82.33 85.4"/><path class="cls-2" d="M36.36,129.49v-9.61h2.48a4.64,4.64,0,0,1,1.83.37,4.79,4.79,0,0,1,1.53,1,5,5,0,0,1,1,1.55,4.84,4.84,0,0,1,0,3.71,4.86,4.86,0,0,1-1,1.54,4.66,4.66,0,0,1-3.36,1.41Zm1.3-8.31v7h1.18a3.36,3.36,0,0,0,1.34-.27,3.53,3.53,0,0,0,1.12-.75A3.6,3.6,0,0,0,42,126a3.54,3.54,0,0,0,0-2.7,3.6,3.6,0,0,0-.74-1.13,3.54,3.54,0,0,0-1.12-.75,3.37,3.37,0,0,0-1.34-.27Z"/><path class="cls-2" d="M44.89,129.49v-9.6H46.1v9.6Z"/><path class="cls-2" d="M52.37,121.93a1.59,1.59,0,0,0-.64-.57,2.29,2.29,0,0,0-1-.18,1.82,1.82,0,0,0-1.37.42,1.47,1.47,0,0,0-.37,1.08,1.57,1.57,0,0,0,.12.66,1,1,0,0,0,.35.41,2.41,2.41,0,0,0,1.14.32,8,8,0,0,1,1.36.22,3.66,3.66,0,0,1,1,.41A2.28,2.28,0,0,1,54,126.78a2.54,2.54,0,0,1-.22,1,2.82,2.82,0,0,1-1.7,1.54,4,4,0,0,1-1.3.22,3.39,3.39,0,0,1-2.44-.87,3.44,3.44,0,0,1-.94-2.08h1.3a1.9,1.9,0,0,0,.52,1.14,2.15,2.15,0,0,0,1.52.52,2.27,2.27,0,0,0,1.44-.42,1.31,1.31,0,0,0,.54-1.08,1.58,1.58,0,0,0-.08-.53.88.88,0,0,0-.29-.4,3.67,3.67,0,0,0-1.83-.48,3.31,3.31,0,0,1-2.08-.79,2.52,2.52,0,0,1-.71-1.91,2.71,2.71,0,0,1,.77-2,3.5,3.5,0,0,1,4.59.1,3.62,3.62,0,0,1,.89,2.08h-1.3A2.26,2.26,0,0,0,52.37,121.93Z"/><path class="cls-2" d="M55.3,129.49v-9.6h5.25v1.3h-4v2.92h2.68v1.18H56.55v2.9h4v1.3Z"/><path class="cls-2" d="M67.61,129.49l-4.33-7v7H62v-9.6h1.26l4.47,7.25V119.9H69v9.6Zm.16-11.33a2.64,2.64,0,0,1-.65.74,1.21,1.21,0,0,1-.72.24,1.41,1.41,0,0,1-.48-.09,4.45,4.45,0,0,1-.54-.25l-.43-.19a1.28,1.28,0,0,0-.35-.08q-.29,0-.56.48l-.06.13-.65-.59a2,2,0,0,1,.39-.51,1.17,1.17,0,0,1,.87-.39,1.67,1.67,0,0,1,.54.09,5.35,5.35,0,0,1,.63.27,3.14,3.14,0,0,0,.43.19.66.66,0,0,0,.28,0,.59.59,0,0,0,.36-.16,3.22,3.22,0,0,0,.39-.46Z"/><path class="cls-2" d="M73.24,129.2a4.67,4.67,0,0,1-1.54-1,4.81,4.81,0,0,1-1-1.55,4.86,4.86,0,0,1,0-3.72,4.83,4.83,0,0,1,1-1.55,4.89,4.89,0,0,1,1.54-1,4.65,4.65,0,0,1,1.86-.38,4.7,4.7,0,0,1,1.86.38,4.85,4.85,0,0,1,2.58,2.58,4.7,4.7,0,0,1,.38,1.86,4.75,4.75,0,0,1-.37,1.87A4.83,4.83,0,0,1,77,129.19a4.83,4.83,0,0,1-3.72,0Zm.51-7.71a3.5,3.5,0,0,0-2.16,3.24,3.56,3.56,0,0,0,.27,1.38,3.48,3.48,0,0,0,.75,1.13,3.49,3.49,0,0,0,2.48,1,3.52,3.52,0,1,0-1.35-6.78Z"/><path class="cls-2" d="M94.6,129a4.73,4.73,0,0,1-3.65.35,4.53,4.53,0,0,1-1.63-.87,4.81,4.81,0,0,1-1.2-1.47,4.48,4.48,0,0,1-.55-2.21,4.3,4.3,0,0,1,0-.58A4.87,4.87,0,0,1,88,122.7a4.56,4.56,0,0,1,.85-1.26,5,5,0,0,1,1.19-.92,4.69,4.69,0,0,1,1.44-.52,4.5,4.5,0,0,1,.89-.09,4.59,4.59,0,0,1,2.28.61,5.87,5.87,0,0,1,1.46,1.23l-1,.84a4.34,4.34,0,0,0-1.49-1.11,3.7,3.7,0,0,0-1.31-.25,3.39,3.39,0,0,0-3.09,2,3.3,3.3,0,0,0-.37,1.54,3.42,3.42,0,0,0,.13.92,3.25,3.25,0,0,0,1.24,1.86,3.39,3.39,0,0,0,1,.53,3.45,3.45,0,0,0,1.13.19,3.38,3.38,0,0,0,1.44-.31,3.75,3.75,0,0,0,1.19-.87v-1H93.65v-1.3h2.61v2.74a4.49,4.49,0,0,1-1,1A5.16,5.16,0,0,1,94.6,129Z"/><path class="cls-2" d="M103.43,129.49h-1.7L99,126.22v3.28H97.7v-9.58h2.47a3,3,0,0,1,1.19.24,3,3,0,0,1,1,.67,3.25,3.25,0,0,1,.65,1,3.27,3.27,0,0,1,0,2.35,3,3,0,0,1-.58,1,3.18,3.18,0,0,1-.88.69,2.87,2.87,0,0,1-1.05.32ZM99,121.21v3.67h1.2a1.72,1.72,0,0,0,.69-.14,1.87,1.87,0,0,0,.58-.39,2,2,0,0,0,.38-.59,1.82,1.82,0,0,0-1-2.4,1.71,1.71,0,0,0-.69-.14Z"/><path class="cls-2" d="M111.33,129.49l-1.18-3.38h-3L106,129.49h-1.37l3.33-9.58h1.44l3.33,9.58Zm-2.69-7.72-1.1,3.13h2.18Zm.38-2.58h-1l.54-2h1.13Z"/><path class="cls-2" d="M115.24,121.2v2.86h2.7v1.3h-2.7v4.14H114v-9.6h5.25v1.3Z"/><path class="cls-2" d="M120.55,129.49v-9.6h1.21v9.6Z"/><path class="cls-2" d="M126,129.18a4.75,4.75,0,0,1-1.54-1.05,4.84,4.84,0,0,1-1-1.54,4.74,4.74,0,0,1-.37-1.88,4.84,4.84,0,0,1,3-4.47,4.79,4.79,0,0,1,3.91.09,5.19,5.19,0,0,1,1.73,1.37l-1,.84a3.61,3.61,0,0,0-2.8-1.36,3.4,3.4,0,0,0-1.35.27,3.59,3.59,0,0,0-1.9,1.9,3.54,3.54,0,0,0,0,2.73,3.6,3.6,0,0,0,1.9,1.9,3.41,3.41,0,0,0,1.35.27,3.61,3.61,0,0,0,2.8-1.36l1,.84a5.35,5.35,0,0,1-1.74,1.37,4.78,4.78,0,0,1-3.9.09Z"/><path class="cls-2" d="M135.48,129.2a4.67,4.67,0,0,1-1.54-1,4.81,4.81,0,0,1-1-1.55,4.86,4.86,0,0,1,0-3.72,4.83,4.83,0,0,1,1-1.55,4.89,4.89,0,0,1,1.54-1,4.65,4.65,0,0,1,1.86-.38,4.7,4.7,0,0,1,1.86.38,4.85,4.85,0,0,1,2.58,2.58,4.7,4.7,0,0,1,.38,1.86,4.75,4.75,0,0,1-.37,1.87,4.83,4.83,0,0,1-2.58,2.59,4.83,4.83,0,0,1-3.72,0Zm.51-7.71a3.5,3.5,0,0,0-2.16,3.24,3.56,3.56,0,0,0,.27,1.38,3.48,3.48,0,0,0,.75,1.13,3.49,3.49,0,0,0,2.48,1,3.52,3.52,0,1,0-1.35-6.78Z"/></g></svg>