<svg xmlns="http://www.w3.org/2000/svg" viewBox="0 0 177 177"><defs><style>.cls-1{fill:#f4a286;}.cls-2{fill:#043845;}</style></defs><title>interiorismo</title><g id="Capa_3" data-name="Capa 3"><rect class="cls-1" x="176.59" y="176.59" width="0.41" height="0.41"/><rect class="cls-1" width="0.41" height="0.41"/></g><g id="Capa_4" data-name="Capa 4"><rect class="cls-2" x="147.13" y="91.2" width="14.04" height="14.04"/><rect class="cls-2" x="105.2" y="88.41" width="9.01" height="16.83"/><polygon class="cls-2" points="115.24 105.24 130.2 105.25 130.2 51.94 115.24 51.94 115.24 69.28 115.24 87.39 115.24 105.24"/><path class="cls-2" d="M79.68,87.39V82.48h4.78v4.91h29.76V69.28H74.09V51.94H22.44v53.31H42V95.3H38.62l-.07-.43c-.9-5.89-1.56-6-2.09-6.15l.21-1c1.29.28,2,1.26,2.82,6.56h6.45v1H43v9.95h4.93V87.39h9.18v17.85h4.72V95.3H58.91v-1h6.45c.83-5.29,1.52-6.28,2.82-6.56l.21,1c-.53.11-1.19.26-2.09,6.15l-.07.43H62.86v9.95H74.09V87.39ZM48.58,69.28H31.4V58.23H48.58Zm15.53,9H56.57V57.89h7.53Z"/><rect class="cls-2" x="57.59" y="58.91" width="5.49" height="18.36"/><rect class="cls-2" x="32.42" y="59.25" width="15.13" height="9.01"/><polygon class="cls-2" points="79.68 88.41 75.11 88.41 75.11 105.25 84.12 105.24 84.12 88.41 79.68 88.41"/><rect class="cls-2" x="95.17" y="88.41" width="9.01" height="16.83"/><rect class="cls-2" x="48.96" y="88.41" width="7.14" height="16.32"/><rect class="cls-2" x="85.14" y="88.41" width="9.01" height="16.83"/><rect class="cls-2" x="80.7" y="83.5" width="2.74" height="3.89"/><rect class="cls-2" x="75.11" y="51.94" width="9.01" height="16.32"/><rect class="cls-2" x="85.14" y="51.94" width="9.01" height="16.32"/><rect class="cls-2" x="105.2" y="51.94" width="9.01" height="16.32"/><rect class="cls-2" x="95.17" y="51.94" width="9.01" height="16.32"/><rect class="cls-2" x="61.84" y="105.24" width="1.02"/><rect class="cls-2" x="41.99" y="105.24" width="1.02"/><path class="cls-2" d="M23.16,129.49v-9.6h1.21v9.6Z"/><path class="cls-2" d="M31.43,129.49l-4.33-7v7H25.81v-9.6h1.26l4.47,7.25V119.9h1.27v9.6Z"/><path class="cls-2" d="M37.7,121.12v8.37H36.43v-8.37H34.11V119.9H40v1.23Z"/><path class="cls-2" d="M41.33,129.49v-9.6h5.25v1.3h-4v2.92h2.68v1.18H42.58v2.9h4v1.3Z"/><path class="cls-2" d="M53.75,129.49h-1.7l-2.76-3.28v3.28H48v-9.58h2.47a3,3,0,0,1,2.17.91,3.27,3.27,0,0,1,.65,1,3.28,3.28,0,0,1,0,2.35,3,3,0,0,1-.58,1,3.15,3.15,0,0,1-.88.69,2.87,2.87,0,0,1-1.05.32Zm-4.46-8.28v3.67h1.2a1.72,1.72,0,0,0,.69-.14,1.86,1.86,0,0,0,.58-.39,1.94,1.94,0,0,0,.38-.59,1.89,1.89,0,0,0-.38-2,1.86,1.86,0,0,0-.58-.39,1.72,1.72,0,0,0-.69-.14Z"/><path class="cls-2" d="M55.05,129.49v-9.6h1.21v9.6Z"/><path class="cls-2" d="M60.52,129.2a4.65,4.65,0,0,1-1.54-1,4.83,4.83,0,0,1-1-1.55,4.85,4.85,0,0,1,0-3.72,4.9,4.9,0,0,1,2.58-2.59,4.65,4.65,0,0,1,1.85-.38,4.71,4.71,0,0,1,1.86.38,4.85,4.85,0,0,1,2.58,2.58,4.7,4.7,0,0,1,.38,1.86,4.75,4.75,0,0,1-.37,1.87,4.83,4.83,0,0,1-2.58,2.59,4.83,4.83,0,0,1-3.72,0Zm.5-7.71a3.5,3.5,0,0,0-2.16,3.24,3.54,3.54,0,0,0,.27,1.38,3.5,3.5,0,0,0,6.47,0,3.54,3.54,0,0,0,.27-1.38A3.51,3.51,0,0,0,61,121.49Z"/><path class="cls-2" d="M74.22,129.49h-1.7l-2.76-3.28v3.28H68.49v-9.58H71a3,3,0,0,1,2.17.91,3.27,3.27,0,0,1,.65,1,3.28,3.28,0,0,1,0,2.35,3,3,0,0,1-.58,1,3.15,3.15,0,0,1-.88.69,2.87,2.87,0,0,1-1.05.32Zm-4.46-8.28v3.67H71a1.72,1.72,0,0,0,.69-.14,1.86,1.86,0,0,0,.58-.39,1.94,1.94,0,0,0,.38-.59,1.89,1.89,0,0,0-.38-2,1.86,1.86,0,0,0-.58-.39,1.72,1.72,0,0,0-.69-.14Z"/><path class="cls-2" d="M75.52,129.49v-9.6h1.21v9.6Z"/><path class="cls-2" d="M83,121.93a1.58,1.58,0,0,0-.64-.57,2.29,2.29,0,0,0-1-.18,1.82,1.82,0,0,0-1.37.42,1.47,1.47,0,0,0-.37,1.08,1.59,1.59,0,0,0,.12.66,1,1,0,0,0,.35.41,2.41,2.41,0,0,0,1.14.32,8,8,0,0,1,1.36.22,3.67,3.67,0,0,1,1,.41,2.28,2.28,0,0,1,1.05,2.08,2.54,2.54,0,0,1-.22,1,2.81,2.81,0,0,1-1.7,1.54,4,4,0,0,1-1.31.22,3.39,3.39,0,0,1-2.44-.87,3.43,3.43,0,0,1-.94-2.08h1.3a1.89,1.89,0,0,0,.52,1.14,2.15,2.15,0,0,0,1.52.52,2.28,2.28,0,0,0,1.44-.42,1.31,1.31,0,0,0,.53-1.08,1.58,1.58,0,0,0-.08-.53.89.89,0,0,0-.3-.4,3.66,3.66,0,0,0-1.83-.48,3.31,3.31,0,0,1-2.08-.79,2.52,2.52,0,0,1-.71-1.91,2.71,2.71,0,0,1,.77-2,3.5,3.5,0,0,1,4.59.1,3.62,3.62,0,0,1,.89,2.08H83.3A2.24,2.24,0,0,0,83,121.93Z"/><path class="cls-2" d="M93.91,129.49V122l-2.86,4.13h-1L87.23,122v7.52h-1.3v-9.6h1.43l3.2,4.63,3.21-4.63h1.44v9.6Z"/><path class="cls-2" d="M99.46,129.2a4.65,4.65,0,0,1-1.54-1,4.83,4.83,0,0,1-1-1.55,4.85,4.85,0,0,1,0-3.72,4.9,4.9,0,0,1,2.58-2.59,4.65,4.65,0,0,1,1.85-.38,4.71,4.71,0,0,1,1.86.38,4.85,4.85,0,0,1,2.58,2.58,4.7,4.7,0,0,1,.38,1.86,4.75,4.75,0,0,1-.37,1.87,4.83,4.83,0,0,1-2.58,2.59,4.83,4.83,0,0,1-3.72,0Zm.5-7.71a3.5,3.5,0,0,0-2.16,3.24,3.54,3.54,0,0,0,.27,1.38,3.5,3.5,0,0,0,6.47,0,3.54,3.54,0,0,0,.27-1.38,3.51,3.51,0,0,0-4.86-3.24Z"/></g></svg>