<svg xmlns="http://www.w3.org/2000/svg" viewBox="0 0 177 177"><defs><style>.cls-1{fill:#f4a286;}.cls-2{fill:#043845;}</style></defs><title>interiorismo-online</title><g id="Capa_3" data-name="Capa 3"><rect class="cls-1" x="176.59" y="176.59" width="0.41" height="0.41"/><rect class="cls-1" width="0.41" height="0.41"/></g><g id="Capa_9" data-name="Capa 9"><path class="cls-2" d="M20.36,128.92v-9.6h1.21v9.6Z"/><path class="cls-2" d="M28.63,128.92l-4.33-7v7H23v-9.6h1.26l4.47,7.25v-7.25H30v9.6Z"/><path class="cls-2" d="M34.9,120.54v8.37H33.63v-8.37H31.31v-1.23h5.92v1.23Z"/><path class="cls-2" d="M38.53,128.92v-9.6h5.25v1.3h-4v2.92h2.68v1.18H39.78v2.9h4v1.3Z"/><path class="cls-2" d="M51,128.92h-1.7l-2.76-3.28v3.28H45.22v-9.58h2.47a3,3,0,0,1,2.17.91,3.27,3.27,0,0,1,.65,1,3.28,3.28,0,0,1,0,2.35,3,3,0,0,1-.58,1,3.15,3.15,0,0,1-.88.69,2.87,2.87,0,0,1-1.05.32Zm-4.46-8.28v3.67h1.2a1.72,1.72,0,0,0,.69-.14,1.86,1.86,0,0,0,.58-.39,1.94,1.94,0,0,0,.38-.59,1.89,1.89,0,0,0-.38-2,1.86,1.86,0,0,0-.58-.39,1.72,1.72,0,0,0-.69-.14Z"/><path class="cls-2" d="M52.25,128.92v-9.6h1.21v9.6Z"/><path class="cls-2" d="M57.72,128.62a4.65,4.65,0,0,1-1.54-1,4.83,4.83,0,0,1-1-1.55,4.85,4.85,0,0,1,0-3.72,4.9,4.9,0,0,1,2.58-2.59,4.65,4.65,0,0,1,1.85-.38,4.71,4.71,0,0,1,1.86.38A4.85,4.85,0,0,1,64,122.29a4.7,4.7,0,0,1,.38,1.86A4.75,4.75,0,0,1,64,126a4.83,4.83,0,0,1-2.58,2.59,4.83,4.83,0,0,1-3.72,0Zm.5-7.71a3.5,3.5,0,0,0-2.16,3.24,3.54,3.54,0,0,0,.27,1.38,3.5,3.5,0,0,0,6.47,0,3.54,3.54,0,0,0,.27-1.38,3.51,3.51,0,0,0-4.86-3.24Z"/><path class="cls-2" d="M71.42,128.92h-1.7L67,125.64v3.28H65.69v-9.58h2.47a3,3,0,0,1,2.17.91,3.27,3.27,0,0,1,.65,1,3.28,3.28,0,0,1,0,2.35,3,3,0,0,1-.58,1,3.15,3.15,0,0,1-.88.69,2.87,2.87,0,0,1-1.05.32ZM67,120.63v3.67h1.2a1.72,1.72,0,0,0,.69-.14,1.86,1.86,0,0,0,.58-.39,1.94,1.94,0,0,0,.38-.59,1.89,1.89,0,0,0-.38-2,1.86,1.86,0,0,0-.58-.39,1.72,1.72,0,0,0-.69-.14Z"/><path class="cls-2" d="M72.72,128.92v-9.6h1.21v9.6Z"/><path class="cls-2" d="M80.2,121.35a1.58,1.58,0,0,0-.64-.57,2.29,2.29,0,0,0-1-.18,1.82,1.82,0,0,0-1.37.42,1.47,1.47,0,0,0-.37,1.08,1.59,1.59,0,0,0,.12.66,1,1,0,0,0,.35.41,2.41,2.41,0,0,0,1.14.32,8,8,0,0,1,1.36.22,3.67,3.67,0,0,1,1,.41,2.28,2.28,0,0,1,1.05,2.08,2.54,2.54,0,0,1-.22,1,2.81,2.81,0,0,1-1.7,1.54,4,4,0,0,1-1.31.22,3.39,3.39,0,0,1-2.44-.87,3.43,3.43,0,0,1-.94-2.08h1.3a1.89,1.89,0,0,0,.52,1.14,2.15,2.15,0,0,0,1.52.52,2.28,2.28,0,0,0,1.44-.42,1.31,1.31,0,0,0,.53-1.08,1.58,1.58,0,0,0-.08-.53.89.89,0,0,0-.3-.4,3.66,3.66,0,0,0-1.83-.48,3.31,3.31,0,0,1-2.08-.79,2.52,2.52,0,0,1-.71-1.91,2.71,2.71,0,0,1,.77-2,3.5,3.5,0,0,1,4.59.1,3.62,3.62,0,0,1,.89,2.08H80.5A2.24,2.24,0,0,0,80.2,121.35Z"/><path class="cls-2" d="M91.11,128.92V121.4l-2.86,4.13h-1l-2.84-4.13v7.52h-1.3v-9.6h1.43l3.2,4.63L91,119.32h1.44v9.6Z"/><path class="cls-2" d="M96.66,128.62a4.65,4.65,0,0,1-1.54-1,4.83,4.83,0,0,1-1-1.55,4.85,4.85,0,0,1,0-3.72,4.9,4.9,0,0,1,2.58-2.59,4.65,4.65,0,0,1,1.85-.38,4.71,4.71,0,0,1,1.86.38,4.85,4.85,0,0,1,2.58,2.58,4.7,4.7,0,0,1,.38,1.86A4.75,4.75,0,0,1,103,126a4.83,4.83,0,0,1-2.58,2.59,4.83,4.83,0,0,1-3.72,0Zm.5-7.71A3.5,3.5,0,0,0,95,124.15a3.54,3.54,0,0,0,.27,1.38,3.5,3.5,0,0,0,6.47,0,3.54,3.54,0,0,0,.27-1.38,3.51,3.51,0,0,0-4.86-3.24Z"/><path class="cls-2" d="M113.93,128.62a4.65,4.65,0,0,1-1.54-1,4.83,4.83,0,0,1-1-1.55,4.85,4.85,0,0,1,0-3.72,4.9,4.9,0,0,1,2.58-2.59,4.65,4.65,0,0,1,1.85-.38,4.71,4.71,0,0,1,1.86.38,4.85,4.85,0,0,1,2.58,2.58,4.7,4.7,0,0,1,.38,1.86,4.75,4.75,0,0,1-.37,1.87,4.83,4.83,0,0,1-2.58,2.59,4.83,4.83,0,0,1-3.72,0Zm.5-7.71a3.5,3.5,0,0,0-2.16,3.24,3.54,3.54,0,0,0,.27,1.38,3.5,3.5,0,0,0,6.47,0,3.54,3.54,0,0,0,.27-1.38,3.51,3.51,0,0,0-4.86-3.24Z"/><path class="cls-2" d="M127.52,128.92l-4.33-7v7h-1.28v-9.6h1.26l4.47,7.25v-7.25h1.27v9.6Z"/><path class="cls-2" d="M130.35,128.92v-9.6h1.24v8.3h2.89v1.3Z"/><path class="cls-2" d="M135.78,128.92v-9.6H137v9.6Z"/><path class="cls-2" d="M144,128.92l-4.33-7v7h-1.28v-9.6h1.26l4.47,7.25v-7.25h1.27v9.6Z"/><path class="cls-2" d="M146.88,128.92v-9.6h5.25v1.3h-4v2.92h2.68v1.18h-2.68v2.9h4v1.3Z"/><rect class="cls-2" x="144.33" y="90.63" width="14.04" height="14.04"/><rect class="cls-2" x="93.45" y="63.67" width="4.39" height="10.9"/><rect class="cls-2" x="106.8" y="94.34" width="5.36" height="9.37"/><rect class="cls-2" x="50.34" y="61.3" width="9.63" height="9.63"/><rect class="cls-2" x="75.2" y="68.01" width="9.58" height="6.57"/><rect class="cls-2" x="85.78" y="71.92" width="6.67" height="2.66"/><rect class="cls-2" x="85.78" y="63.67" width="6.67" height="7.25"/><rect class="cls-2" x="69.83" y="63.67" width="4.36" height="10.9"/><rect class="cls-2" x="81.49" y="90.67" width="10.22" height="1.57"/><rect class="cls-2" x="75.2" y="63.67" width="9.58" height="3.34"/><path class="cls-2" d="M19.64,51.36V64.67H32.55V51.36h1v53.31h-1v-39H19.64v39H43.26V93.34H54.95v1H50.63v10.33H105.8V94.34h-4.32v-1h11.68v11.33H127.4V51.36Zm49.2,11.32h30v12.9h-30Zm-19.5,9.25V60.3H61V71.92Zm50,28.34H95.21v4.41h-1v-4.41H62.3v4.41h-1v-4.41H57.4v-8h6.76V89.67H76.38v2.57h4.12V89.67H92.71v2.57H99.3Zm16-16.21h-7.52V58.8h7.52Z"/><rect class="cls-2" x="108.75" y="59.8" width="5.52" height="23.25"/><rect class="cls-2" x="44.26" y="94.34" width="5.36" height="9.37"/><polygon class="cls-2" points="76.38 93.24 64.16 93.24 58.4 93.24 58.4 99.26 98.3 99.26 98.3 93.24 92.71 93.24 80.49 93.24 76.38 93.24"/><rect class="cls-2" x="65.16" y="90.67" width="10.22" height="1.57"/></g></svg>