<svg xmlns="http://www.w3.org/2000/svg" viewBox="0 0 177 177"><defs><style>.cls-1{fill:#f4a286;}.cls-2{fill:#043845;}</style></defs><title>locales</title><g id="Capa_3" data-name="Capa 3"><rect class="cls-1" x="176.59" y="176.59" width="0.41" height="0.41"/><rect class="cls-1" width="0.41" height="0.41"/></g><g id="Capa_6" data-name="Capa 6"><rect class="cls-2" x="143.83" y="97.97" width="14.04" height="14.04"/><polygon class="cls-2" points="85.91 88.5 69.91 88.5 69.91 112.01 85.91 112.01 85.91 92.66 85.91 89.58 85.91 88.5"/><rect class="cls-2" x="28.73" y="88.5" width="35.89" height="17.02"/><polygon class="cls-2" points="65.61 88.5 65.61 106.5 29.22 106.5 29.22 112.01 68.93 112.01 68.93 88.5 65.61 88.5"/><circle class="cls-2" cx="94.93" cy="84.37" r="4.71"/><polygon class="cls-2" points="69.91 87.52 85.91 87.52 85.91 81.89 19.13 81.89 19.13 87.52 64.63 87.52 68.93 87.52 69.91 87.52"/><path class="cls-2" d="M126.9,68.91H28.73v12H86.89V91.68h7.54V90a5.69,5.69,0,1,1,1,0v2.62H86.89V112h40Z"/><path class="cls-2" d="M20.07,136.28v-9.6h1.24V135H24.2v1.3Z"/><path class="cls-2" d="M27.44,136a4.64,4.64,0,0,1-1.54-1,4.83,4.83,0,0,1-1-1.55,4.85,4.85,0,0,1,0-3.72,4.81,4.81,0,0,1,1-1.55,4.87,4.87,0,0,1,1.54-1,4.65,4.65,0,0,1,1.85-.37,4.71,4.71,0,0,1,1.86.38,4.86,4.86,0,0,1,2.58,2.58,4.7,4.7,0,0,1,.38,1.86,4.75,4.75,0,0,1-.37,1.87A4.84,4.84,0,0,1,31.16,136a4.83,4.83,0,0,1-3.72,0Zm.5-7.71a3.5,3.5,0,0,0-2.16,3.24,3.54,3.54,0,0,0,.27,1.38,3.5,3.5,0,0,0,6.47,0,3.54,3.54,0,0,0,.27-1.38,3.51,3.51,0,0,0-4.86-3.24Z"/><path class="cls-2" d="M38.23,136a4.73,4.73,0,0,1-1.54-1.05,4.85,4.85,0,0,1-1-1.54,4.73,4.73,0,0,1-.37-1.88,4.84,4.84,0,0,1,3-4.47,4.79,4.79,0,0,1,3.91.09,5.17,5.17,0,0,1,1.73,1.37l-1,.84a3.61,3.61,0,0,0-2.8-1.36,3.4,3.4,0,0,0-1.35.27,3.59,3.59,0,0,0-1.9,1.9,3.53,3.53,0,0,0,0,2.73,3.59,3.59,0,0,0,1.9,1.9,3.39,3.39,0,0,0,1.35.27,3.61,3.61,0,0,0,2.8-1.36l1,.84a5.34,5.34,0,0,1-1.74,1.37,4.64,4.64,0,0,1-2,.46A4.7,4.7,0,0,1,38.23,136Z"/><path class="cls-2" d="M51.48,136.28,50.3,132.9h-3l-1.18,3.38H44.74l3.33-9.58h1.44l3.33,9.58Zm-2.68-7.72-1.1,3.13h2.18Z"/><path class="cls-2" d="M54.15,136.28v-9.6h1.24V135h2.89v1.3Z"/><path class="cls-2" d="M59.58,136.28v-9.6h5.25V128h-4v2.92h2.68v1.18H60.83V135h4v1.3Z"/><path class="cls-2" d="M71.1,128.71a1.59,1.59,0,0,0-.64-.57,2.29,2.29,0,0,0-1-.18,1.83,1.83,0,0,0-1.37.42,1.47,1.47,0,0,0-.37,1.08,1.58,1.58,0,0,0,.12.66,1,1,0,0,0,.35.41,2.41,2.41,0,0,0,1.14.32,7.89,7.89,0,0,1,1.36.22,3.67,3.67,0,0,1,1,.41,2.28,2.28,0,0,1,1.05,2.08,2.55,2.55,0,0,1-.22,1,2.81,2.81,0,0,1-1.7,1.54,4,4,0,0,1-1.31.22,3.39,3.39,0,0,1-2.44-.87,3.43,3.43,0,0,1-.94-2.08h1.3a1.89,1.89,0,0,0,.52,1.14,2.15,2.15,0,0,0,1.52.52,2.28,2.28,0,0,0,1.44-.42,1.31,1.31,0,0,0,.53-1.08,1.58,1.58,0,0,0-.08-.53.89.89,0,0,0-.3-.4,3.66,3.66,0,0,0-1.83-.48,3.31,3.31,0,0,1-2.08-.79,2.52,2.52,0,0,1-.71-1.91,2.71,2.71,0,0,1,.77-2,3.5,3.5,0,0,1,4.59.1,3.62,3.62,0,0,1,.89,2.08H71.4A2.25,2.25,0,0,0,71.1,128.71Z"/></g></svg>