<svg xmlns="http://www.w3.org/2000/svg" viewBox="0 0 177 177"><defs><style>.cls-1{fill:#f4a286;}.cls-2{fill:#043845;}</style></defs><title>nueva-planta</title><g id="Capa_3" data-name="Capa 3"><rect class="cls-1" x="176.59" y="176.59" width="0.41" height="0.41"/><rect class="cls-1" width="0.41" height="0.41"/></g><g id="Capa_1" data-name="Capa 1"><rect class="cls-2" x="141.89" y="91.2" width="14.04" height="14.04"/><path class="cls-2" d="M125,44.2H57.4V51H67.56V73.11H32.5v32.24h80.29V80H125ZM112,51V72.72H68.32V51Zm0,53.64H44.29V80.38H112Z"/><path class="cls-2" d="M37.78,129.48H36.33L33,119.88h1.37l2.68,7.72,2.69-7.72H41.1Z"/><path class="cls-2" d="M42.33,129.49v-9.6h1.21v9.6Z"/><path class="cls-2" d="M49.55,129.48H48.09l-3.32-9.6h1.37l2.68,7.72,2.69-7.72h1.36Z"/><path class="cls-2" d="M54.09,129.49v-9.6h1.21v9.6Z"/><path class="cls-2" d="M56.75,129.49v-9.6H62v1.3H58v2.92h2.68v1.18H58v2.9h4v1.3Z"/><path class="cls-2" d="M69.06,129.49l-4.33-7v7H63.45v-9.6H64.7l4.47,7.25V119.9h1.27v9.6Z"/><path class="cls-2" d="M71.89,129.49v-9.61h2.48a4.63,4.63,0,0,1,1.83.37,4.8,4.8,0,0,1,1.53,1,5.08,5.08,0,0,1,1,1.55,4.86,4.86,0,0,1,0,3.71,4.89,4.89,0,0,1-1,1.54,4.67,4.67,0,0,1-3.36,1.41Zm1.3-8.31v7h1.18a3.36,3.36,0,0,0,1.33-.27,3.51,3.51,0,0,0,1.12-.75,3.6,3.6,0,0,0,.74-1.13,3.55,3.55,0,0,0,0-2.7,3.6,3.6,0,0,0-.74-1.13,3.52,3.52,0,0,0-1.12-.75,3.37,3.37,0,0,0-1.33-.27Z"/><path class="cls-2" d="M87,129.49l-1.18-3.38h-3l-1.18,3.38H80.27l3.33-9.58h1.44l3.33,9.58Zm-2.68-7.72-1.1,3.13h2.18Z"/><path class="cls-2" d="M38.84,146.81l-4.33-7v7H33.22v-9.6h1.26L39,144.46v-7.25h1.27v9.6Z"/><path class="cls-2" d="M43.72,146.65a3.33,3.33,0,0,1-1.08-.74,3.51,3.51,0,0,1-.72-1.1,3.34,3.34,0,0,1-.26-1.3v-6.26h1.23v6.26a2.15,2.15,0,0,0,.16.82,2.08,2.08,0,0,0,.46.69,2,2,0,0,0,.68.47,2.12,2.12,0,0,0,1.65,0,2.18,2.18,0,0,0,.69-.47,2.09,2.09,0,0,0,.46-.69,2.17,2.17,0,0,0,.16-.82v-6.26h1.21v6.26a3.34,3.34,0,0,1-.26,1.3,3.51,3.51,0,0,1-.72,1.1,3.35,3.35,0,0,1-1.08.74,3.26,3.26,0,0,1-2.58,0Z"/><path class="cls-2" d="M49.81,146.81v-9.6h5.25v1.3h-4v2.92h2.68v1.18H51.06v2.9h4v1.3Z"/><path class="cls-2" d="M60.78,146.8H59.32L56,137.2h1.37l2.68,7.72,2.69-7.72H64.1Z"/><path class="cls-2" d="M70.33,146.81l-1.18-3.38h-3L65,146.81H63.59l3.33-9.58h1.44l3.33,9.58Zm-2.68-7.72-1.1,3.13h2.18Z"/><path class="cls-2" d="M80.77,143.48v3.33H79.5v-9.6h2.7a3,3,0,0,1,1.17.24,3.13,3.13,0,0,1,1,.67,3.26,3.26,0,0,1,.67,1,3.13,3.13,0,0,1-.67,3.41,3.22,3.22,0,0,1-1,.68,2.89,2.89,0,0,1-1.17.25Zm0-5v3.67H82.2a1.68,1.68,0,0,0,1.27-.55,1.83,1.83,0,0,0,0-2.58,1.73,1.73,0,0,0-1.27-.53Z"/><path class="cls-2" d="M86.57,146.81v-9.6h1.24v8.3H90.7v1.3Z"/><path class="cls-2" d="M98.59,146.81l-1.18-3.38h-3l-1.18,3.38H91.85l3.33-9.58h1.44l3.33,9.58Zm-2.68-7.72-1.1,3.13H97Z"/><path class="cls-2" d="M106.88,146.81l-4.33-7v7h-1.28v-9.6h1.26l4.47,7.25v-7.25h1.27v9.6Z"/><path class="cls-2" d="M113.16,138.44v8.37h-1.27v-8.37h-2.32v-1.23h5.92v1.23Z"/><path class="cls-2" d="M121.93,146.81l-1.18-3.38h-3l-1.18,3.38h-1.37l3.33-9.58H120l3.33,9.58Zm-2.68-7.72-1.1,3.13h2.18Z"/></g></svg>