<svg id="Capa_1" data-name="Capa 1" xmlns="http://www.w3.org/2000/svg" viewBox="0 0 128.56 128.56"><defs><style>.cls-1{fill:#043845;}</style></defs><title>instagram</title><path class="cls-1" d="M342.68,215.61H252.83A19.35,19.35,0,0,0,233.48,235v89.84a19.35,19.35,0,0,0,19.35,19.36h89.85A19.36,19.36,0,0,0,362,324.81V235A19.36,19.36,0,0,0,342.68,215.61Zm4.25,93.62a19.84,19.84,0,0,1-19.84,19.84H268.42a19.84,19.84,0,0,1-19.84-19.84V250.55a19.84,19.84,0,0,1,19.84-19.84H327.1a19.84,19.84,0,0,1,19.84,19.84Z" transform="translate(-233.48 -215.61)"/><path class="cls-1" d="M328,238.39H267.47a11.21,11.21,0,0,0-11.21,11.21v60.58a11.21,11.21,0,0,0,11.21,11.21H328a11.21,11.21,0,0,0,11.21-11.21V249.6A11.21,11.21,0,0,0,328,238.39Zm-30.29,68a26.47,26.47,0,1,1,26.47-26.47A26.47,26.47,0,0,1,297.76,306.35Zm26.34-45.43a7.38,7.38,0,1,1,7.37-7.38A7.38,7.38,0,0,1,324.1,260.92Z" transform="translate(-233.48 -215.61)"/><circle class="cls-1" cx="64.28" cy="64.28" r="18.96"/></svg>